<svg xmlns="http://www.w3.org/2000/svg" viewBox="0 0 747.51 169.04"><defs><style>.cls-1{fill:#a00;}</style></defs><g id="Capa_2" data-name="Capa 2"><g id="svg10"><g id="g6148-4-7"><g id="g5846-9-4"><g id="g5638-9-4"><g id="g54-7-1"><path id="path56-8-3" class="cls-1" d="M79.82,130.2a5.18,5.18,0,0,1-1.56-1.37,6.63,6.63,0,0,1-1.06-2,8.18,8.18,0,0,1,0-5,6.81,6.81,0,0,1,1.06-2,5.32,5.32,0,0,1,1.56-1.37,3.91,3.91,0,0,1,1.93-.5h22.54a1.55,1.55,0,0,1,1.26.67,2.81,2.81,0,0,1,0,3.26,1.56,1.56,0,0,1-1.26.68H81.68a1.27,1.27,0,0,0-1,.5,1.93,1.93,0,0,0-.42,1.27,2,2,0,0,0,.42,1.25,1.27,1.27,0,0,0,1,.53h20.53a4,4,0,0,1,2,.5,5.27,5.27,0,0,1,1.58,1.37,7,7,0,0,1,1.05,2,7.92,7.92,0,0,1,.39,2.52,7.75,7.75,0,0,1-.39,2.5,7,7,0,0,1-1.05,2,4.93,4.93,0,0,1-1.58,1.35,4.14,4.14,0,0,1-2,.48H79.71a1.53,1.53,0,0,1-1.26-.68,2.81,2.81,0,0,1,0-3.26,1.52,1.52,0,0,1,1.26-.67h22.65a1.2,1.2,0,0,0,1-.51,1.87,1.87,0,0,0,.41-1.22,2.1,2.1,0,0,0-.41-1.3,1.18,1.18,0,0,0-1-.52H81.75a3.82,3.82,0,0,1-1.93-.51"/></g><g id="g58-7-5"><path id="path60-1-6" class="cls-1" d="M138.71,126.77a2.81,2.81,0,0,1,0,3.26,1.57,1.57,0,0,1-1.27.68H119a1.56,1.56,0,0,1-1.26-.68,2.81,2.81,0,0,1,0-3.26,1.55,1.55,0,0,1,1.26-.67h18.49a1.55,1.55,0,0,1,1.27.67m-20.16-4.22a3.4,3.4,0,0,0-2.1.6,4.3,4.3,0,0,0-1.26,1.46,6.27,6.27,0,0,0-.64,1.9,11.3,11.3,0,0,0,0,3.79,6.11,6.11,0,0,0,.64,1.89,4.34,4.34,0,0,0,1.26,1.47,3.4,3.4,0,0,0,2.1.6H139a1.55,1.55,0,0,1,1.27.67,2.81,2.81,0,0,1,0,3.26,1.57,1.57,0,0,1-1.27.68H117.36a4.18,4.18,0,0,1-2.71-1,8.22,8.22,0,0,1-2-2.48,13.56,13.56,0,0,1-1.28-3.38,16.1,16.1,0,0,1-.44-3.65,15,15,0,0,1,.46-3.67,12.53,12.53,0,0,1,1.36-3.36,8.36,8.36,0,0,1,2.15-2.47,4.59,4.59,0,0,1,2.86-1H139a1.55,1.55,0,0,1,1.27.67,2.81,2.81,0,0,1,0,3.26,1.57,1.57,0,0,1-1.27.68Z"/></g><g id="g62-9-1"><path id="path64-6-4" class="cls-1" d="M143.57,128.4a15,15,0,0,1,.47-3.67,12.51,12.51,0,0,1,1.35-3.36,8.36,8.36,0,0,1,2.15-2.47,4.61,4.61,0,0,1,2.86-1h21.65a1.55,1.55,0,0,1,1.26.67,2.81,2.81,0,0,1,0,3.26,1.56,1.56,0,0,1-1.26.68H151.18a3.44,3.44,0,0,0-2.1.6,4.42,4.42,0,0,0-1.26,1.46,6,6,0,0,0-.63,1.9,10.65,10.65,0,0,0,0,3.79,5.85,5.85,0,0,0,.63,1.89,4.45,4.45,0,0,0,1.26,1.47,3.44,3.44,0,0,0,2.1.6h20.87a1.55,1.55,0,0,1,1.26.67,2.81,2.81,0,0,1,0,3.26,1.56,1.56,0,0,1-1.26.68H150a4.2,4.2,0,0,1-2.71-1,8.2,8.2,0,0,1-2-2.48,12.82,12.82,0,0,1-1.28-3.38,15.57,15.57,0,0,1-.45-3.65"/></g><g id="g66-4-7"><path id="path68-6-7" class="cls-1" d="M181.28,130.3a5.85,5.85,0,0,0,.63,1.89,4.45,4.45,0,0,0,1.26,1.47,3.4,3.4,0,0,0,2.1.6H200a3.4,3.4,0,0,0,2.08-.6,4.29,4.29,0,0,0,1.28-1.47,6.11,6.11,0,0,0,.64-1.89,12.07,12.07,0,0,0,.16-1.9v-8.16a2.63,2.63,0,0,1,.52-1.63,1.53,1.53,0,0,1,2.53,0,2.63,2.63,0,0,1,.52,1.63v8.16a15,15,0,0,1-.47,3.67,12.57,12.57,0,0,1-1.35,3.36,8.43,8.43,0,0,1-2.16,2.48,4.58,4.58,0,0,1-2.85,1H184a4.72,4.72,0,0,1-2.71-1.08,8.74,8.74,0,0,1-2-2.48A13,13,0,0,1,178,132a14.92,14.92,0,0,1-.45-3.6v-8.16a2.63,2.63,0,0,1,.52-1.63,1.53,1.53,0,0,1,2.53,0,2.57,2.57,0,0,1,.52,1.63v8.16a11.05,11.05,0,0,0,.17,1.9"/></g><g id="g70-4-1"><path id="path72-4-2" class="cls-1" d="M240.51,136.56a2.55,2.55,0,0,1-.52,1.63,1.53,1.53,0,0,1-1.26.68,1.2,1.2,0,0,1-.67-.2,2.23,2.23,0,0,1-.55-.48,5.08,5.08,0,0,1-.34-.48,16.73,16.73,0,0,0-3.13-3.84,12.43,12.43,0,0,0-3.4-2.11,13.22,13.22,0,0,0-3.77-.89c-1.33-.11-2.74-.16-4.25-.16H215v5.85a2.5,2.5,0,0,1-.54,1.63,1.49,1.49,0,0,1-2.5,0,2.55,2.55,0,0,1-.52-1.63V124.23a7.84,7.84,0,0,1,.41-2.6,7,7,0,0,1,1-2,4.74,4.74,0,0,1,1.45-1.28,3.32,3.32,0,0,1,1.63-.45h19.38a4.15,4.15,0,0,1,2,.5,5.44,5.44,0,0,1,1.63,1.37,6.93,6.93,0,0,1,1.12,2,7.43,7.43,0,0,1,.4,2.49A2.55,2.55,0,0,1,240,126a1.53,1.53,0,0,1-1.26.68,1.56,1.56,0,0,1-1.26-.68,2.55,2.55,0,0,1-.52-1.63,1.84,1.84,0,0,0-.39-1.2,1.48,1.48,0,0,0-.91-.57H216.19a1,1,0,0,0-.77.31,1.39,1.39,0,0,0-.38.74v2.5h7.58a33.07,33.07,0,0,1,5.9.48,17.36,17.36,0,0,1,4.77,1.56,14.09,14.09,0,0,1,3.83,2.83,18.73,18.73,0,0,1,3,4.3,2.44,2.44,0,0,1,.37,1.29"/></g><g id="g74-3-3"><path id="path76-5-8" class="cls-1" d="M247.27,138.19a1.56,1.56,0,0,1-1.26.68,1.53,1.53,0,0,1-1.26-.68,2.55,2.55,0,0,1-.52-1.63V120.24a2.57,2.57,0,0,1,.52-1.63,1.52,1.52,0,0,1,1.26-.67,1.55,1.55,0,0,1,1.26.67,2.57,2.57,0,0,1,.52,1.63v16.32a2.55,2.55,0,0,1-.52,1.63"/></g><g id="g78-2-4"><path id="path80-8-8" class="cls-1" d="M278.83,117.94a1.52,1.52,0,0,1,1.26.67,2.57,2.57,0,0,1,.52,1.63,2.54,2.54,0,0,1-.48,1.56,1.78,1.78,0,0,1-1.15.75h-7.46a3.19,3.19,0,0,0-1.84.69,4.2,4.2,0,0,0-1.13,1.47,6.35,6.35,0,0,0-.56,1.87,12.47,12.47,0,0,0-.15,1.82v8.16a2.55,2.55,0,0,1-.52,1.63,1.56,1.56,0,0,1-1.26.68,1.53,1.53,0,0,1-1.26-.68,2.55,2.55,0,0,1-.52-1.63V128.4a16.21,16.21,0,0,1,.29-3,13.72,13.72,0,0,1,.89-2.85H253.29a1.57,1.57,0,0,1-1.27-.68,2.81,2.81,0,0,1,0-3.26,1.55,1.55,0,0,1,1.27-.67Z"/></g><g id="g82-1-1"><path id="path84-5-0" class="cls-1" d="M297,136.56a3.38,3.38,0,0,1,.66-2.11,2,2,0,0,1,1.64-.86,2,2,0,0,1,1.63.86,3.66,3.66,0,0,1,0,4.22,2,2,0,0,1-1.63.87,2,2,0,0,1-1.64-.87,3.36,3.36,0,0,1-.66-2.11m2.3-10.27a17.6,17.6,0,0,0,2.56-.17,6.51,6.51,0,0,0,2.38-.93,17.74,17.74,0,0,0,2.87-2.31c1.08-1,2.42-2.45,4-4.27a1.76,1.76,0,0,1,1.26-.67,1.55,1.55,0,0,1,1.27.67,2.63,2.63,0,0,1,.52,1.63,2.5,2.5,0,0,1-.21,1,2.9,2.9,0,0,1-.5.82q-2.34,2.69-4.18,4.44a23,23,0,0,1-3.47,2.78,11.7,11.7,0,0,1-3.19,1.46,12.37,12.37,0,0,1-3.34.44,13.94,13.94,0,0,1-3.47-.41,10.41,10.41,0,0,1-3.18-1.47,24.86,24.86,0,0,1-3.41-2.8q-1.83-1.76-4.2-4.44a3.15,3.15,0,0,1-.5-.82,2.5,2.5,0,0,1-.2-1,2.57,2.57,0,0,1,.52-1.63,1.52,1.52,0,0,1,1.26-.67,1.21,1.21,0,0,1,.67.19,4.79,4.79,0,0,1,.59.48c1.58,1.79,2.92,3.2,4,4.22a16.87,16.87,0,0,0,2.9,2.31,7.06,7.06,0,0,0,2.43,1,15.69,15.69,0,0,0,2.6.19"/></g></g><g id="g5654-3-6"><g id="g86-3-5"><path id="path88-4-9" class="cls-1" d="M516.94,126.46a5.2,5.2,0,0,1-1.56-1.37,6.81,6.81,0,0,1-1.06-2,8.18,8.18,0,0,1,0-5,6.63,6.63,0,0,1,1.06-2,5.06,5.06,0,0,1,1.56-1.37,3.82,3.82,0,0,1,1.93-.51h22.54a1.56,1.56,0,0,1,1.26.68,2.81,2.81,0,0,1,0,3.26,1.55,1.55,0,0,1-1.26.67H518.8a1.27,1.27,0,0,0-1,.51,1.91,1.91,0,0,0-.43,1.27,2,2,0,0,0,.43,1.25,1.25,1.25,0,0,0,1,.52h20.53a3.94,3.94,0,0,1,1.95.51,5.13,5.13,0,0,1,1.58,1.37,6.55,6.55,0,0,1,1,2,7.92,7.92,0,0,1,.39,2.52,7.73,7.73,0,0,1-.39,2.49,6.79,6.79,0,0,1-1,2,5,5,0,0,1-1.58,1.34,4.14,4.14,0,0,1-1.95.48h-22.5a1.52,1.52,0,0,1-1.26-.67,2.81,2.81,0,0,1,0-3.26,1.53,1.53,0,0,1,1.26-.68h22.65a1.19,1.19,0,0,0,1-.5,1.84,1.84,0,0,0,.41-1.22,2,2,0,0,0-.41-1.3,1.19,1.19,0,0,0-1-.53H518.87a3.91,3.91,0,0,1-1.93-.5"/></g><g id="g90-0-4"><path id="path92-9-8" class="cls-1" d="M560.68,132.82a3.31,3.31,0,0,1,.67-2.11,2,2,0,0,1,3.26,0,3.66,3.66,0,0,1,0,4.22,2,2,0,0,1-3.26,0,3.33,3.33,0,0,1-.67-2.11m2.3-10.27a17.6,17.6,0,0,0,2.56-.17,6.54,6.54,0,0,0,2.38-.94,18.06,18.06,0,0,0,2.88-2.3c1.07-1,2.42-2.45,4-4.27a1.8,1.8,0,0,1,1.27-.68,1.56,1.56,0,0,1,1.26.68,2.55,2.55,0,0,1,.52,1.63,2.5,2.5,0,0,1-.21,1,2.71,2.71,0,0,1-.5.81q-2.34,2.69-4.17,4.44a23.53,23.53,0,0,1-3.47,2.79,12.54,12.54,0,0,1-3.2,1.46,12.37,12.37,0,0,1-3.34.43,13.48,13.48,0,0,1-3.47-.41,10.72,10.72,0,0,1-3.18-1.46,24.28,24.28,0,0,1-3.41-2.81c-1.22-1.17-2.61-2.65-4.2-4.44a2.93,2.93,0,0,1-.5-.81,2.67,2.67,0,0,1-.2-1,2.55,2.55,0,0,1,.52-1.63,1.53,1.53,0,0,1,1.26-.68,1.2,1.2,0,0,1,.67.2,3.11,3.11,0,0,1,.59.48q2.38,2.68,4,4.22a17.66,17.66,0,0,0,2.9,2.3,6.68,6.68,0,0,0,2.43,1,15.71,15.71,0,0,0,2.6.2"/></g><g id="g94-5-1"><path id="path96-9-5" class="cls-1" d="M584.59,126.46a5.2,5.2,0,0,1-1.56-1.37,7,7,0,0,1-1.06-2,8.18,8.18,0,0,1,0-5,6.86,6.86,0,0,1,1.06-2,5.06,5.06,0,0,1,1.56-1.37,3.82,3.82,0,0,1,1.93-.51h22.54a1.56,1.56,0,0,1,1.26.68,2.81,2.81,0,0,1,0,3.26,1.55,1.55,0,0,1-1.26.67H586.45a1.27,1.27,0,0,0-1,.51,1.91,1.91,0,0,0-.42,1.27,2,2,0,0,0,.42,1.25,1.25,1.25,0,0,0,1,.52H607a3.94,3.94,0,0,1,1.95.51,5.13,5.13,0,0,1,1.58,1.37,6.77,6.77,0,0,1,1,2,7.92,7.92,0,0,1,.39,2.52,7.73,7.73,0,0,1-.39,2.49,7,7,0,0,1-1,2,5,5,0,0,1-1.58,1.34,4.14,4.14,0,0,1-1.95.48h-22.5a1.52,1.52,0,0,1-1.26-.67,2.77,2.77,0,0,1,0-3.26,1.53,1.53,0,0,1,1.26-.68h22.65a1.19,1.19,0,0,0,1-.5,1.89,1.89,0,0,0,.41-1.22,2.06,2.06,0,0,0-.41-1.3,1.19,1.19,0,0,0-1-.53H586.52a3.91,3.91,0,0,1-1.93-.5"/></g><g id="g98-7-1"><path id="path100-9-0" class="cls-1" d="M643,114.19a1.55,1.55,0,0,1,1.26.67,2.6,2.6,0,0,1,.53,1.64,2.57,2.57,0,0,1-.49,1.56,1.7,1.7,0,0,1-1.15.74h-7.46a3.22,3.22,0,0,0-1.84.7,4.16,4.16,0,0,0-1.13,1.46,6.77,6.77,0,0,0-.56,1.87,12.49,12.49,0,0,0-.15,1.83v8.16a2.57,2.57,0,0,1-.52,1.63,1.52,1.52,0,0,1-2.52,0,2.57,2.57,0,0,1-.52-1.63v-8.16a15.26,15.26,0,0,1,.3-3,12.87,12.87,0,0,1,.89-2.86H617.45a1.52,1.52,0,0,1-1.26-.67,2.57,2.57,0,0,1-.52-1.63,2.59,2.59,0,0,1,.52-1.64,1.55,1.55,0,0,1,1.26-.67Z"/></g><g id="g102-5-9"><path id="path104-0-0" class="cls-1" d="M676.3,123a2.59,2.59,0,0,1,.52,1.64,2.57,2.57,0,0,1-.52,1.63A1.55,1.55,0,0,1,675,127H656.55a1.55,1.55,0,0,1-1.27-.67,2.63,2.63,0,0,1-.52-1.63,2.65,2.65,0,0,1,.52-1.64,1.58,1.58,0,0,1,1.27-.67H675a1.58,1.58,0,0,1,1.26.67m-20.16-4.22a3.4,3.4,0,0,0-2.1.6,4.67,4.67,0,0,0-1.27,1.46,6.24,6.24,0,0,0-.62,1.9,10.65,10.65,0,0,0,0,3.79,6.24,6.24,0,0,0,.62,1.9,4.67,4.67,0,0,0,1.27,1.46,3.4,3.4,0,0,0,2.1.6H676.6a1.58,1.58,0,0,1,1.26.67,2.65,2.65,0,0,1,.52,1.64,2.63,2.63,0,0,1-.52,1.63,1.55,1.55,0,0,1-1.26.67H655a4.18,4.18,0,0,1-2.71-1,8.18,8.18,0,0,1-2-2.47,13.78,13.78,0,0,1-1.28-3.39,16,16,0,0,1-.44-3.64A15.08,15.08,0,0,1,649,121a12.53,12.53,0,0,1,1.36-3.36,8.49,8.49,0,0,1,2.15-2.47,4.59,4.59,0,0,1,2.86-1H676.6a1.58,1.58,0,0,1,1.26.67,2.65,2.65,0,0,1,.52,1.64,2.63,2.63,0,0,1-.52,1.63,1.55,1.55,0,0,1-1.26.67Z"/></g><g id="g106-6-8"><path id="path108-5-5" class="cls-1" d="M695.49,132.82a3.37,3.37,0,0,1,.67-2.11,2,2,0,0,1,3.27,0,3.66,3.66,0,0,1,0,4.22,2,2,0,0,1-3.27,0,3.39,3.39,0,0,1-.67-2.11m-10.36,1.63a1.52,1.52,0,0,1-1.26.67,1.55,1.55,0,0,1-1.26-.67,2.57,2.57,0,0,1-.52-1.63V116.5a2.55,2.55,0,0,1,.52-1.63,1.56,1.56,0,0,1,1.26-.68,1.2,1.2,0,0,1,.67.2,2.83,2.83,0,0,1,.59.48,49.92,49.92,0,0,0,4.11,4.22,17.17,17.17,0,0,0,3.15,2.3,8.11,8.11,0,0,0,2.69,1,17.92,17.92,0,0,0,2.72.2,20.52,20.52,0,0,0,2.69-.17,7.62,7.62,0,0,0,2.63-.94,17.79,17.79,0,0,0,3.12-2.3,53,53,0,0,0,4.14-4.27,1.78,1.78,0,0,1,1.26-.68,1.57,1.57,0,0,1,1.27.68,2.61,2.61,0,0,1,.52,1.63v16.32a2.63,2.63,0,0,1-.52,1.63,1.53,1.53,0,0,1-2.53,0,2.63,2.63,0,0,1-.52-1.63V121.44a27,27,0,0,1-3.21,2.88,17.5,17.5,0,0,1-3,1.85,12.48,12.48,0,0,1-2.91,1,14.41,14.41,0,0,1-2.93.29,15.3,15.3,0,0,1-3.07-.29,12.47,12.47,0,0,1-2.93-1,16.18,16.18,0,0,1-3-1.85,29.46,29.46,0,0,1-3.18-2.88v11.38a2.57,2.57,0,0,1-.52,1.63"/></g><g id="g110-4-3"><path id="path112-1-1" class="cls-1" d="M720.15,126.46a5.08,5.08,0,0,1-1.56-1.37,6.81,6.81,0,0,1-1.06-2,8.18,8.18,0,0,1,0-5,6.63,6.63,0,0,1,1.06-2,5,5,0,0,1,1.56-1.37,3.82,3.82,0,0,1,1.93-.51h22.53a1.57,1.57,0,0,1,1.27.68,2.81,2.81,0,0,1,0,3.26,1.55,1.55,0,0,1-1.27.67H722a1.25,1.25,0,0,0-1,.51,1.86,1.86,0,0,0-.43,1.27,1.92,1.92,0,0,0,.43,1.25,1.23,1.23,0,0,0,1,.52h20.54a3.88,3.88,0,0,1,1.94.51,4.91,4.91,0,0,1,1.58,1.37,6.57,6.57,0,0,1,1.06,2,7.92,7.92,0,0,1,.39,2.52,7.73,7.73,0,0,1-.39,2.49,6.81,6.81,0,0,1-1.06,2,4.81,4.81,0,0,1-1.58,1.34,4.07,4.07,0,0,1-1.94.48H720a1.55,1.55,0,0,1-1.27-.67,2.81,2.81,0,0,1,0-3.26,1.57,1.57,0,0,1,1.27-.68h22.64a1.2,1.2,0,0,0,1-.5,1.89,1.89,0,0,0,.41-1.22,2.06,2.06,0,0,0-.41-1.3,1.21,1.21,0,0,0-1-.53h-20.6a3.91,3.91,0,0,1-1.93-.5"/></g></g></g><g id="g5664-7-5-5"><g id="g38-9-9-1"><path id="path40-6-4-4" d="M48.44,74.61A5.61,5.61,0,0,1,51,70a10.19,10.19,0,0,1,6.24-1.91h70.27a28.13,28.13,0,0,1,8.62,1.3,24.26,24.26,0,0,1,7.07,3.53,16.14,16.14,0,0,1,4.68,5.31,13.41,13.41,0,0,1,1.65,6.46v3a13.41,13.41,0,0,1-1.65,6.46,16,16,0,0,1-4.68,5.3,24,24,0,0,1-7.07,3.54,28.13,28.13,0,0,1-8.62,1.29H31.92a31.4,31.4,0,0,1-13.39-2.72,32.88,32.88,0,0,1-10-7A30.89,30.89,0,0,1,2.2,85,26.83,26.83,0,0,1,0,74.61a25.74,25.74,0,0,1,2.29-10.4A30,30,0,0,1,9,54.69,34.8,34.8,0,0,1,33.76,45h107A10.17,10.17,0,0,1,147,46.87a5.45,5.45,0,0,1,0,9.25,10.17,10.17,0,0,1-6.24,1.9H37.79a26.56,26.56,0,0,0-10.36,1.7,18.52,18.52,0,0,0-6.24,4.15,12.93,12.93,0,0,0-3.12,5.37,18,18,0,0,0,0,10.74,13,13,0,0,0,3.12,5.38,18.36,18.36,0,0,0,6.24,4.14,26.38,26.38,0,0,0,10.36,1.7h89a5.86,5.86,0,0,0,3.94-1.49,4.55,4.55,0,0,0,1.75-3.54,4.77,4.77,0,0,0-1.56-3.53,5.71,5.71,0,0,0-4.13-1.5H57.24A10.19,10.19,0,0,1,51,79.24a5.61,5.61,0,0,1-2.56-4.63"/></g><g id="g42-2-6-1"><path id="path44-0-5-5" d="M311.35,97.73a5.62,5.62,0,0,1-2.57,4.63,10.17,10.17,0,0,1-6.24,1.9,9.52,9.52,0,0,1-3.3-.54,14.37,14.37,0,0,1-2.75-1.36,15.71,15.71,0,0,1-1.65-1.36,66.37,66.37,0,0,0-15.51-10.88,76.88,76.88,0,0,0-16.78-6,105.32,105.32,0,0,0-18.63-2.51q-9.81-.48-21-.48H185.49V97.73a5.58,5.58,0,0,1-2.66,4.63,10.32,10.32,0,0,1-6.15,1.9,10.17,10.17,0,0,1-6.24-1.9,5.62,5.62,0,0,1-2.57-4.63V62.78a13.7,13.7,0,0,1,2-7.34A20,20,0,0,1,175,49.86a24.32,24.32,0,0,1,7.16-3.6,26.34,26.34,0,0,1,8.07-1.3H286a32.55,32.55,0,0,1,9.72,1.43,29,29,0,0,1,8.08,3.88,19.59,19.59,0,0,1,5.5,5.71,13.28,13.28,0,0,1,2,7.07,5.62,5.62,0,0,1-2.57,4.63,11.2,11.2,0,0,1-12.48,0,5.61,5.61,0,0,1-2.56-4.63,4.06,4.06,0,0,0-1.93-3.4,9.38,9.38,0,0,0-4.5-1.63H191.18a7.5,7.5,0,0,0-3.86.88A3.84,3.84,0,0,0,185.49,61v7.07h37.43a285,285,0,0,1,29.17,1.36,135.5,135.5,0,0,1,23.57,4.42,80.86,80.86,0,0,1,18.9,8,65.75,65.75,0,0,1,14.95,12.17,5.11,5.11,0,0,1,1.84,3.67"/></g><g id="g46-2-1-9"><path id="path48-9-8-5" d="M521.12,102.36a11.2,11.2,0,0,1-12.48,0,5.62,5.62,0,0,1-2.57-4.63V51.49a5.62,5.62,0,0,1,2.57-4.62,11.15,11.15,0,0,1,12.48,0,5.62,5.62,0,0,1,2.57,4.62V97.73a5.62,5.62,0,0,1-2.57,4.63"/></g><g id="g50-6-8-2"><path id="path52-3-5-1" d="M557.44,102.83a27.56,27.56,0,0,1-8-3.87,20.2,20.2,0,0,1-5.41-5.72,13.14,13.14,0,0,1-2-7.07V51.49a5.62,5.62,0,0,1,2.57-4.62,11,11,0,0,1,12.38,0,5.56,5.56,0,0,1,2.67,4.62V86.17a4.31,4.31,0,0,0,2.1,3.54,8.19,8.19,0,0,0,4.87,1.49H676.7a10.19,10.19,0,0,1,6.24,1.91,5.45,5.45,0,0,1,0,9.25,10.19,10.19,0,0,1-6.24,1.9H567.17a32.62,32.62,0,0,1-9.73-1.43"/></g></g></g><g id="g8417"><path id="path6967" d="M408.94,0a84.32,84.32,0,0,0-83.13,71.67c8.44-29.07,43.07-49.84,83.13-49.85,40.34,0,75.1,21.08,83.24,50.41A84.31,84.31,0,0,0,408.94,0ZM325.89,98.32A84.1,84.1,0,0,0,491.83,99c-8.81,28.72-43.2,49.11-82.89,49.14C368.92,148.09,334.34,127.36,325.89,98.32Z"/><g id="g118-99-2-12-2"><path id="path120-9-3-70-5" class="cls-1" d="M397.79,94.59c1.18-10.55,19-11.23,22.29-1.68,1.45,8.64-9.91,11.93-16.37,9.08C400.67,100.79,397.7,98.14,397.79,94.59ZM359.5,106.7c-5.59,6.84-21.31-1.21-12.94-8.61,15.06-14.89,29.88-30,45.09-44.78,11.45-8.56,29.59-7.25,38.75,4.08l42.06,41.69c6.3,8.81-10.7,14-15.08,6.48L416.12,64.73c-4.47-5.67-12-3.6-15.67,1.67Z"/></g></g></g></g></svg>