<svg xmlns="http://www.w3.org/2000/svg" width="411.91" height="292.44" viewBox="0 0 411.91 292.44"><defs><style>.cls-1{fill:#ee7f3e;}.cls-2{fill:#494e6a;}.cls-3{fill:#c9ce2c;}</style></defs><g id="Layer_2" data-name="Layer 2"><g id="Background_copy_2_Image" data-name="Background copy 2 Image"><path class="cls-1" d="M410.23,64.66c-20.62,34.56-57.17,55-94.48,37.81-15.74-7.25-28-33.68-26.61-50.8,1.65-20.54,13.61-30.14,29.93-40.9,25.9-17.08,46.8-12.5,69.24,4.31,7.89,5.91,11.48,13.11,12.16,22,.41,5.3,2.1,9,6,11.49A11.92,11.92,0,0,1,410.23,64.66Z"/><path class="cls-2" d="M30.79,292.44c-7.63-6.29-19.24-3.5-25.86-14.32C-3.44,264.46-.18,249.72,7.45,242c8.19-8.33,22.15-6.5,37.35.47,9.5,4.36,11.87,19.37,9.66,31.24-2.37,12.68-11.2,15.55-20.87,18.77Z"/><path class="cls-3" d="M56.84,149.22c-5.74-40.3,15.23-63.31,44.09-78.89a88.57,88.57,0,0,1,57.94-8.66c15.49,3,32.16,1.94,46.26,11.87,5.91,4.16,12.21-1.09,17.7-4.29,24-14,42.88-10.14,58.61,12.54,4.69,6.77,9.34,13.56,13.09,21.11,13.13,26.43,3.38,51.26-2.53,77.1-7.63,33.35-34.28,44.4-60.74,56.36-15.2,6.88-29.83,15.87-46.59,18.23-17.36,2.45-35.24,3.69-52.39-.39C90.77,244.31,72.41,211,57.39,176,53.7,167.43,56.84,155.92,56.84,149.22Zm146.45,37.25c6.33.6,12.61-1,17.05-6.3,14.3-17.19,11.79-38.61-6.38-52-6.43-4.75-12.71-9.47-17.08-16.15-8.8-13.48-17.55-16.75-33.19-11.91-23.87,7.4-34.11,23-27,41.06C144.35,160.53,182,186.38,203.29,186.47Z"/></g></g></svg>